<svg width="23" height="23" viewBox="0 0 23 23" fill="none" xmlns="http://www.w3.org/2000/svg">
<path d="M11.5 0C5.15897 0 0 5.15897 0 11.5C0 17.841 5.15897 23 11.5 23C17.841 23 23 17.841 23 11.5C23 5.15897 17.841 0 11.5 0ZM17.485 7.64584L10.0542 16.492C9.9727 16.5891 9.87127 16.6675 9.7568 16.722C9.64233 16.7765 9.5175 16.8057 9.39075 16.8077H9.37582C9.25183 16.8076 9.12923 16.7815 9.01598 16.7311C8.90273 16.6806 8.80136 16.6068 8.71844 16.5147L5.53382 12.9762C5.45294 12.8904 5.39003 12.7893 5.34878 12.6789C5.30752 12.5684 5.28876 12.4509 5.2936 12.3331C5.29843 12.2153 5.32677 12.0996 5.37693 11.9929C5.4271 11.8862 5.49809 11.7907 5.58572 11.7118C5.67336 11.6329 5.77587 11.5724 5.88725 11.5337C5.99862 11.495 6.1166 11.479 6.23425 11.4866C6.35191 11.4941 6.46686 11.5251 6.57236 11.5778C6.67786 11.6304 6.77177 11.7036 6.84858 11.793L9.3526 14.5751L16.1304 6.50801C16.2824 6.33223 16.4975 6.22335 16.7292 6.20489C16.9609 6.18642 17.1905 6.25987 17.3685 6.40935C17.5464 6.55883 17.6584 6.77233 17.6802 7.00371C17.702 7.23509 17.6319 7.46575 17.485 7.64584Z" fill="#2FBE34"/>
</svg>
