<svg width="23" height="23" viewBox="0 0 23 23" fill="none" xmlns="http://www.w3.org/2000/svg">
<path d="M11.5 0C5.15897 0 0 5.15897 0 11.5C0 17.841 5.15897 23 11.5 23C17.841 23 23 17.841 23 11.5C23 5.15897 17.841 0 11.5 0ZM15.6638 14.4131C15.7494 14.4945 15.8178 14.5921 15.8651 14.7003C15.9124 14.8085 15.9375 14.9251 15.939 15.0432C15.9405 15.1612 15.9184 15.2784 15.8739 15.3878C15.8294 15.4971 15.7635 15.5965 15.68 15.68C15.5965 15.7635 15.4971 15.8294 15.3878 15.8739C15.2784 15.9184 15.1612 15.9405 15.0432 15.939C14.9251 15.9375 14.8085 15.9124 14.7003 15.8651C14.5921 15.8178 14.4945 15.7494 14.4131 15.6638L11.5 12.7512L8.58685 15.6638C8.4196 15.8227 8.1969 15.9099 7.96623 15.907C7.73555 15.904 7.51516 15.8111 7.35204 15.648C7.18891 15.4848 7.09596 15.2644 7.09301 15.0338C7.09006 14.8031 7.17733 14.5804 7.33623 14.4131L10.2488 11.5L7.33623 8.58685C7.17733 8.4196 7.09006 8.1969 7.09301 7.96623C7.09596 7.73555 7.18891 7.51516 7.35204 7.35204C7.51516 7.18891 7.73555 7.09596 7.96623 7.09301C8.1969 7.09006 8.4196 7.17733 8.58685 7.33623L11.5 10.2488L14.4131 7.33623C14.5804 7.17733 14.8031 7.09006 15.0338 7.09301C15.2644 7.09596 15.4848 7.18891 15.648 7.35204C15.8111 7.51516 15.904 7.73555 15.907 7.96623C15.9099 8.1969 15.8227 8.4196 15.6638 8.58685L12.7512 11.5L15.6638 14.4131Z" fill="#FF3030"/>
</svg>
